<svg width="44" height="44" viewBox="0 0 44 44" fill="none" xmlns="http://www.w3.org/2000/svg">
<rect width="44" height="44" rx="4" fill="#00499C"/>
<mask id="mask0_2616_125" style="mask-type:alpha" maskUnits="userSpaceOnUse" x="10" y="10" width="24" height="24">
<path d="M13 19.9989C13 23.8649 16.134 26.9989 20 26.9989C21.2055 26.9989 22.3399 26.6941 23.3303 26.1575L27.5859 30.4131C28.367 31.1942 29.6333 31.1942 30.4144 30.4131C31.1954 29.6321 31.1954 28.3658 30.4144 27.5847L26.1587 23.329C26.6953 22.3387 27 21.2044 27 19.9989C27 16.1329 23.866 12.9989 20 12.9989C16.134 12.9989 13 16.1329 13 19.9989ZM25 19.9989C25 22.7603 22.7614 24.9989 20 24.9989C17.2386 24.9989 15 22.7603 15 19.9989C15 17.2375 17.2386 14.9989 20 14.9989C22.7614 14.9989 25 17.2375 25 19.9989Z" fill="white"/>
</mask>
<g mask="url(#mask0_2616_125)">
<rect x="10" y="10" width="24" height="24" fill="white"/>
</g>
</svg>
